<?xml version="1.0" encoding="UTF-8"?>
<svg width="256px" height="256px" viewBox="0 0 256 256" version="1.1" xmlns="http://www.w3.org/2000/svg" xmlns:xlink="http://www.w3.org/1999/xlink">
    <title>favicon</title>
    <g id="favicon" stroke="none" stroke-width="1" fill="none" fill-rule="evenodd">
        <g id="temperature" fill-rule="nonzero">
            <path d="M208,256 L48,256 C21.488,256 0,234.512 0,208 L0,48 C0,21.488 21.488,0 48,0 L208,0 C234.512,0 256,21.488 256,48 L256,208 C256,234.512 234.512,256 208,256 Z" id="Path" fill="#2B6CB0"></path>
            <path d="M224.972625,114.523759 L203.75,94.7142054 L203.75,43.8330703 C203.75,39.1868525 199.975125,35.4118006 195.329125,35.4118006 L170.079125,35.4118006 C165.433125,35.4118006 161.65825,39.1868525 161.65825,43.8330703 L161.65825,55.34761 L133.73175,29.2631373 C130.487125,26.2456209 125.475,26.2456209 122.243,29.2631373 L30.800125,114.725768 C28.350875,117.175133 27,120.394659 27,123.790943 C27,130.747644 32.668625,136.416535 39.625,136.416535 L52.25,136.416535 L52.25,207.965764 C52.25,219.556057 61.6935,229 73.295875,229 L182.71675,229 C194.3065,229 203.75,219.556057 203.75,207.953138 L203.75,136.40391 L216.375,136.40391 C223.331375,136.40391 229,130.735019 229,123.778318 C229,120.394659 227.649125,117.175133 224.972625,114.523759 L224.972625,114.523759 Z M109.0625,182.701955 L130.108375,182.701955 C133.592875,182.701955 136.420875,185.530087 136.420875,189.014751 C136.420875,192.499414 133.592875,195.327547 130.108375,195.327547 L109.0625,195.327547 C96.298625,195.327547 85.920875,184.94931 85.920875,172.184837 L85.920875,142.729331 C85.920875,129.964858 96.298625,119.586621 109.0625,119.586621 L130.108375,119.586621 C133.592875,119.586621 136.420875,122.414754 136.420875,125.899417 C136.420875,129.384081 133.592875,132.212213 130.108375,132.212213 L109.0625,132.212213 C103.255,132.212213 98.545875,136.934184 98.545875,142.729331 L98.545875,172.184837 C98.545875,177.992609 103.255,182.701955 109.0625,182.701955 Z M157.454125,127.995265 C150.485125,127.995265 144.829125,122.339 144.829125,115.369674 C144.829125,108.400347 150.485125,102.744082 157.454125,102.744082 C164.423125,102.744082 170.079125,108.400347 170.079125,115.369674 C170.079125,122.339 164.43575,127.995265 157.454125,127.995265 Z" id="Shape" fill="#FAF089"></path>
        </g>
    </g>
</svg>